<svg xmlns="http://www.w3.org/2000/svg" xmlns:xlink="http://www.w3.org/1999/xlink" width="500" zoomAndPan="magnify" viewBox="0 0 375 374.999991" height="500" preserveAspectRatio="xMidYMid meet" version="1.0"><defs><filter x="0%" y="0%" width="100%" height="100%" id="29b1547776"><feColorMatrix values="0 0 0 0 1 0 0 0 0 1 0 0 0 0 1 0 0 0 1 0" color-interpolation-filters="sRGB"/></filter><clipPath id="c6700c95df"><path d="M 108.65625 118.335938 L 266.34375 118.335938 L 266.34375 256.664062 L 108.65625 256.664062 Z M 108.65625 118.335938 " clip-rule="nonzero"/></clipPath><clipPath id="1e209e3d89"><path d="M 108.65625 159.148438 C 108.65625 203.078125 187.5 256.664062 187.5 256.664062 C 187.5 256.664062 266 202.703125 266.34375 159.148438 C 266.34375 136.660156 248.023438 118.335938 225.535156 118.335938 C 208.253906 118.335938 193.367188 129.40625 187.5 144.609375 C 181.632812 129.40625 166.746094 118.335938 149.464844 118.335938 C 126.976562 118.335938 108.65625 136.660156 108.65625 159.148438 " clip-rule="nonzero"/></clipPath><mask id="f8e2b8fe1c"><g filter="url(#29b1547776)"><rect x="-37.5" width="450" fill="#000000" y="-37.499999" height="449.999989" fill-opacity="0.82"/></g></mask><clipPath id="b2a1432452"><path d="M 0.75 0.578125 L 126.25 0.578125 L 126.25 110.664062 L 0.75 110.664062 Z M 0.75 0.578125 " clip-rule="nonzero"/></clipPath><clipPath id="bd0c328941"><path d="M 0.75 33.054688 C 0.75 68.019531 63.5 110.664062 63.5 110.664062 C 63.5 110.664062 125.972656 67.71875 126.25 33.054688 C 126.25 15.160156 111.664062 0.578125 93.769531 0.578125 C 80.015625 0.578125 68.167969 9.386719 63.5 21.484375 C 58.832031 9.386719 46.984375 0.578125 33.230469 0.578125 C 15.335938 0.578125 0.75 15.160156 0.75 33.054688 " clip-rule="nonzero"/></clipPath><clipPath id="524945f6fa"><rect x="0" width="127" y="0" height="111"/></clipPath></defs><path fill="#1b9ce4" d="M 70.734375 169.433594 C 70.734375 107.636719 120.835938 57.542969 182.628906 57.542969 C 210.882812 57.542969 236.683594 68.015625 256.375 85.289062 C 234.957031 52.082031 197.636719 30.09375 155.183594 30.09375 C 88.726562 30.09375 34.847656 83.972656 34.847656 150.429688 C 34.847656 208.171875 75.515625 256.40625 129.773438 268.070312 C 94.628906 249.203125 70.734375 212.109375 70.734375 169.433594 " fill-opacity="1" fill-rule="nonzero"/><path fill="#4f00aa" d="M 298.195312 0.835938 C 295.988281 0.00390625 295.007812 2.308594 294.632812 5.410156 C 293.890625 11.464844 296.3125 17.457031 300.902344 21.476562 C 348.878906 63.515625 339.570312 166.515625 308.214844 160.375 C 287.628906 156.34375 309.550781 95.152344 292.390625 93.070312 C 280.992188 91.683594 270.863281 120.046875 271.585938 157.445312 C 272 178.847656 278.875 196.507812 284.910156 211.832031 C 293.65625 234.035156 285.621094 259.453125 265.503906 272.289062 C 201.503906 313.136719 115.539062 305.609375 59.632812 249.699219 C 30.09375 220.160156 14.066406 182.230469 11.539062 143.582031 C -0.808594 200.816406 15.308594 262.953125 59.898438 307.355469 C 116.101562 363.328125 205.847656 374.976562 274.535156 335.3125 C 339.738281 297.65625 367.011719 220.171875 370.894531 148.132812 C 375.828125 56.496094 323.238281 10.261719 298.195312 0.835938 Z M 289.210938 50.972656 C 314.132812 72.878906 323.554688 111.238281 322.449219 142.136719 C 326.359375 132.554688 328.484375 118.523438 327.996094 103.503906 C 327.351562 83.425781 322.570312 64.617188 314.574219 49.375 C 304.234375 39.429688 294.050781 33.136719 286.425781 30.265625 C 284.164062 29.414062 283.195312 31.847656 282.832031 35.058594 C 282.160156 41.082031 284.65625 46.972656 289.210938 50.972656 " fill-opacity="1" fill-rule="nonzero"/><g clip-path="url(#c6700c95df)"><g clip-path="url(#1e209e3d89)"><path fill="#4f00aa" d="M 108.65625 118.335938 L 266.34375 118.335938 L 266.34375 256.664062 L 108.65625 256.664062 Z M 108.65625 118.335938 " fill-opacity="1" fill-rule="nonzero"/></g></g><g mask="url(#f8e2b8fe1c)"><g transform="matrix(1, 0, 0, 1, 124, 146)"><g clip-path="url(#524945f6fa)"><g clip-path="url(#b2a1432452)"><g clip-path="url(#bd0c328941)"><path fill="#54afe6" d="M 0.75 0.578125 L 126.25 0.578125 L 126.25 110.664062 L 0.75 110.664062 Z M 0.75 0.578125 " fill-opacity="1" fill-rule="nonzero"/></g></g></g></g></g></svg>