<svg xmlns="http://www.w3.org/2000/svg" xmlns:xlink="http://www.w3.org/1999/xlink" width="500" zoomAndPan="magnify" viewBox="0 0 375 374.999991" height="500" preserveAspectRatio="xMidYMid meet" version="1.0"><defs><clipPath id="96a26cb6c6"><path d="M 91.101562 18.378906 L 283.851562 18.378906 L 283.851562 270 L 91.101562 270 Z M 91.101562 18.378906 " clip-rule="nonzero"/></clipPath><clipPath id="61daef193a"><path d="M 91.101562 106 L 283.851562 106 L 283.851562 356.628906 L 91.101562 356.628906 Z M 91.101562 106 " clip-rule="nonzero"/></clipPath></defs><g clip-path="url(#96a26cb6c6)"><path fill="#b000eb" d="M 234.695312 46.359375 C 236.492188 46.359375 238.082031 45.667969 239.257812 44.492188 C 240.433594 43.316406 241.125 41.726562 241.125 39.925781 C 241.125 38.128906 240.433594 36.539062 239.257812 35.363281 C 238.082031 34.1875 236.492188 33.496094 234.695312 33.496094 C 232.898438 33.496094 231.308594 34.1875 230.132812 35.363281 C 228.957031 36.539062 228.265625 38.128906 228.265625 39.925781 C 228.265625 41.726562 228.957031 43.316406 230.132812 44.492188 C 231.308594 45.667969 232.898438 46.359375 234.695312 46.359375 Z M 125.117188 249.328125 L 167.148438 249.328125 L 155.8125 269.039062 L 91.101562 269.039062 L 99.605469 254.238281 L 160.789062 148.222656 L 162.863281 144.628906 L 173.789062 125.75 L 185.125 106.039062 L 204.621094 72.292969 L 216.71875 51.269531 C 214.644531 47.949219 213.402344 44.078125 213.402344 39.859375 C 213.402344 33.980469 215.753906 28.722656 219.625 24.851562 C 223.496094 20.980469 228.75 18.628906 234.625 18.628906 C 240.503906 18.628906 245.757812 20.980469 249.628906 24.851562 C 253.5 28.722656 255.851562 33.980469 255.851562 39.859375 C 255.851562 45.738281 253.5 50.992188 249.628906 54.863281 C 245.757812 58.738281 240.503906 61.089844 234.625 61.089844 C 234.351562 61.089844 234.003906 61.089844 233.726562 61.089844 L 207.800781 106.039062 L 196.464844 125.75 L 179.871094 154.449219 L 179.871094 154.515625 Z M 283.851562 249.328125 L 212.433594 249.328125 L 201.09375 269.039062 L 283.851562 269.039062 Z M 283.851562 249.328125 " fill-opacity="1" fill-rule="evenodd"/></g><g clip-path="url(#61daef193a)"><path fill="#004de8" d="M 140.324219 328.71875 C 138.527344 328.71875 136.9375 329.410156 135.761719 330.585938 C 134.585938 331.761719 133.894531 333.351562 133.894531 335.148438 C 133.894531 336.949219 134.585938 338.539062 135.761719 339.714844 C 136.9375 340.890625 138.527344 341.582031 140.324219 341.582031 C 142.121094 341.582031 143.714844 340.890625 144.886719 339.714844 C 146.0625 338.539062 146.753906 336.949219 146.753906 335.148438 C 146.753906 333.351562 146.0625 331.761719 144.886719 330.585938 C 143.714844 329.410156 142.054688 328.71875 140.324219 328.71875 Z M 219.140625 106.039062 L 283.851562 106.039062 L 275.347656 120.839844 L 212.089844 230.449219 L 201.164062 249.328125 L 189.757812 269.039062 L 158.164062 323.738281 C 160.238281 327.058594 161.480469 330.929688 161.480469 335.148438 C 161.480469 341.027344 159.128906 346.285156 155.257812 350.15625 C 151.386719 354.027344 146.132812 356.378906 140.257812 356.378906 C 134.378906 356.378906 129.125 354.027344 125.253906 350.15625 C 121.382812 346.285156 119.03125 341.027344 119.03125 335.148438 C 119.03125 329.269531 121.382812 324.015625 125.253906 320.144531 C 129.125 316.269531 134.378906 313.917969 140.257812 313.917969 C 140.53125 313.917969 140.878906 313.917969 141.15625 313.917969 L 167.082031 268.96875 L 178.417969 249.257812 L 187.890625 232.871094 L 191.554688 226.4375 L 194.941406 220.558594 L 194.941406 220.628906 L 249.699219 125.75 L 207.664062 125.75 Z M 140.324219 125.75 L 162.519531 125.75 L 173.855469 106.039062 L 91.101562 106.039062 L 91.101562 125.75 Z M 140.324219 125.75 " fill-opacity="1" fill-rule="evenodd"/></g></svg>